<svg width="313" height="119" viewBox="0 0 313 119" fill="none" xmlns="http://www.w3.org/2000/svg">
<path d="M6.28966 52.6207C3.51724 52.6207 1.53103 50.6759 1.53103 48.0276C1.53103 46.6207 1.69655 45.3793 2.23448 43.3103L7.57241 21.7517H3.10345L3.43448 20.3862C7.98621 20.3862 13.6966 15.0897 16.0966 7.31034H17.7103L14.6069 19.7241H21.0207L20.4828 21.7517H17.1724C15.0621 21.7517 13.7793 22.7448 13.2828 24.7724L8.93793 42.3172C8.48276 44.3034 8.1931 45.7931 8.1931 46.331C8.1931 47.1172 8.6069 47.5724 9.26897 47.5724C11.3379 47.5724 13.6552 44.5931 16.5517 38.3448H17.7517C14.3172 47.6138 10.5517 52.6207 6.28966 52.6207ZM40.1742 52.6207C37.4846 52.6207 35.6225 50.8414 35.6225 47.9862C35.6225 47.1586 35.7466 46.4138 35.9949 45.4207C36.988 41.1172 39.9673 33.4621 41.1259 28.7034C41.457 27.5034 41.6225 26.469 41.6225 25.6828C41.6225 24.4 40.8777 23.7793 39.9259 23.7793C36.2846 23.7793 29.457 38.5931 27.5535 45.2138C26.8501 47.7379 26.4777 49.931 26.2708 51.0897C26.1053 52.2069 24.9466 52.331 23.3742 52.331C21.719 52.331 20.4777 52.0414 19.4018 51.5862L29.2501 11.8621H29.2087C29.9122 9.04827 28.919 8.05517 25.7328 7.72414L25.4846 6.48276C31.2777 6.27586 34.4639 5.4069 36.6156 3.17241H37.9397L35.788 11.8621L32.6846 24.2345C31.857 27.5862 29.457 33.9586 28.1328 36.6897H29.2087C35.0018 23.9034 38.7673 19.1034 43.7328 19.1034C46.9604 19.1034 48.6984 21.4207 48.6984 24.3172C48.6984 24.9793 48.5328 25.9724 48.2432 27.131C47.1259 31.5586 43.9397 40.4966 42.7811 44.3448C42.5328 45.2552 42.4501 45.7931 42.4501 46.0828C42.4501 46.9103 42.7397 47.5724 43.5673 47.5724C45.3466 47.5724 47.2501 44.5931 49.4432 40H50.6846C47.0846 48.8138 43.7328 52.6207 40.1742 52.6207ZM64.8933 48.6897C68.2036 48.6897 71.4312 45.5034 73.914 39.2966H75.3209C72.5484 47.7379 67.7484 52.6207 62.1622 52.6207C56.7829 52.6207 53.1829 48.3172 53.1829 41.7379C53.1829 30.3586 60.6312 19.1034 69.6519 19.1034C73.914 19.1034 76.8933 21.9172 76.8933 25.931C76.8933 30.9793 73.045 33.8759 62.7829 37.2276C60.9209 37.8897 60.2174 38.8828 60.0105 41.0759V41.3241C60.0105 45.9172 61.8312 48.6897 64.8933 48.6897ZM69.3622 20.9241C65.5967 20.9241 61.5415 28.7448 60.3829 36.731C68.5346 33.5034 71.3484 29.6138 71.3484 24.1517C71.3484 22.0828 70.645 20.9241 69.3622 20.9241Z" fill="#004231"/>
<path d="M89.66 5.8H99.86C108.46 5.8 112.76 10.1 112.76 18.7V22.6C112.76 31.2 108.46 35.5 99.86 35.5H97.58V52H89.66V5.8ZM98.9 28.54C101.06 28.54 102.58 28.1 103.46 27.22C104.34 26.3 104.78 24.76 104.78 22.6V18.7C104.78 16.54 104.34 15.02 103.46 14.14C102.58 13.22 101.06 12.76 98.9 12.76H97.58V28.54H98.9ZM121.283 5.8H132.143L139.763 52H131.843L130.823 43.78H122.603L121.583 52H113.663L121.283 5.8ZM129.863 37.12L127.583 20.98L126.923 13.42H126.563L125.903 20.98L123.563 37.12H129.863ZM143.801 5.8H154.001C162.601 5.8 166.901 10.1 166.901 18.7V39.1C166.901 47.7 162.601 52 154.001 52H143.801V5.8ZM154.001 45.04C155.681 45.04 156.921 44.6 157.721 43.72C158.521 42.8 158.921 41.26 158.921 39.1V18.7C158.921 16.54 158.521 15.02 157.721 14.14C156.921 13.22 155.681 12.76 154.001 12.76H151.721V45.04H154.001ZM173.508 5.8H193.608V12.76H181.428V24.58H189.948V31.54H181.428V45.04H194.268V52H173.508V5.8ZM199.23 5.8H207.15V45.04H219.99V52H199.23V5.8Z" fill="#004231"/>
<path d="M71.88 106.66C67.88 106.66 64.9 105.66 62.94 103.66C60.98 101.62 60 98.44 60 94.12V71.68C60 67.36 60.98 64.2 62.94 62.2C64.9 60.16 67.88 59.14 71.88 59.14C75.52 59.14 78.34 60.16 80.34 62.2C82.38 64.2 83.4 67.04 83.4 70.72C83.4 71.64 83.36 72.54 83.28 73.42C83.2 74.26 83.12 75.02 83.04 75.7C82.92 76.5 82.82 77.24 82.74 77.92H75.78V71.68C75.78 69.52 75.44 68.06 74.76 67.3C74.12 66.5 73.16 66.1 71.88 66.1C70.56 66.1 69.56 66.5 68.88 67.3C68.24 68.06 67.92 69.52 67.92 71.68V94.12C67.92 96.28 68.24 97.76 68.88 98.56C69.56 99.32 70.56 99.7 71.88 99.7C73.16 99.7 74.12 99.32 74.76 98.56C75.44 97.76 75.78 96.28 75.78 94.12V87.22H82.74C82.82 88.02 82.92 88.84 83.04 89.68C83.12 90.44 83.2 91.28 83.28 92.2C83.36 93.12 83.4 94.08 83.4 95.08C83.4 98.92 82.42 101.82 80.46 103.78C78.54 105.7 75.68 106.66 71.88 106.66ZM100.591 106.66C96.5909 106.66 93.6109 105.66 91.6509 103.66C89.6909 101.62 88.7109 98.44 88.7109 94.12V71.68C88.7109 67.36 89.6909 64.2 91.6509 62.2C93.6109 60.16 96.5909 59.14 100.591 59.14C104.591 59.14 107.571 60.16 109.531 62.2C111.491 64.2 112.471 67.36 112.471 71.68V94.12C112.471 98.44 111.491 101.62 109.531 103.66C107.571 105.66 104.591 106.66 100.591 106.66ZM100.591 99.7C101.871 99.7 102.831 99.32 103.471 98.56C104.151 97.76 104.491 96.28 104.491 94.12V71.68C104.491 69.52 104.151 68.06 103.471 67.3C102.831 66.5 101.871 66.1 100.591 66.1C99.2709 66.1 98.2709 66.5 97.5909 67.3C96.9509 68.06 96.6309 69.52 96.6309 71.68V94.12C96.6309 96.28 96.9509 97.76 97.5909 98.56C98.2709 99.32 99.2709 99.7 100.591 99.7ZM119.078 59.8H126.998V99.04H139.838V106H119.078V59.8ZM143.863 59.8H151.783V99.04H164.623V106H143.863V59.8ZM168.648 59.8H188.748V66.76H176.568V78.58H185.088V85.54H176.568V99.04H189.408V106H168.648V59.8ZM204.946 106.66C200.946 106.66 197.966 105.66 196.006 103.66C194.046 101.62 193.066 98.44 193.066 94.12V71.68C193.066 67.36 194.046 64.2 196.006 62.2C197.966 60.16 200.946 59.14 204.946 59.14C208.586 59.14 211.406 60.16 213.406 62.2C215.446 64.2 216.466 67.04 216.466 70.72C216.466 71.64 216.426 72.54 216.346 73.42C216.266 74.26 216.186 75.02 216.106 75.7C215.986 76.5 215.886 77.24 215.806 77.92H208.846V71.68C208.846 69.52 208.506 68.06 207.826 67.3C207.186 66.5 206.226 66.1 204.946 66.1C203.626 66.1 202.626 66.5 201.946 67.3C201.306 68.06 200.986 69.52 200.986 71.68V94.12C200.986 96.28 201.306 97.76 201.946 98.56C202.626 99.32 203.626 99.7 204.946 99.7C206.226 99.7 207.186 99.32 207.826 98.56C208.506 97.76 208.846 96.28 208.846 94.12V87.22H215.806C215.886 88.02 215.986 88.84 216.106 89.68C216.186 90.44 216.266 91.28 216.346 92.2C216.426 93.12 216.466 94.08 216.466 95.08C216.466 98.92 215.486 101.82 213.526 103.78C211.606 105.7 208.746 106.66 204.946 106.66ZM226.997 66.76H219.437V59.8H242.537V66.76H234.917V106H226.997V66.76ZM246.871 59.8H254.791V106H246.871V59.8ZM259.347 59.8H267.627L271.587 90.82L272.247 98.08H272.607L273.267 90.82L277.167 59.8H285.447L277.827 106H266.967L259.347 59.8ZM290.113 59.8H310.213V66.76H298.033V78.58H306.553V85.54H298.033V99.04H310.873V106H290.113V59.8Z" fill="#004231"/>
</svg>
